<?xml version="1.0" encoding="UTF-8"?>
<svg id="Layer_1" xmlns="http://www.w3.org/2000/svg" version="1.1" viewBox="0 0 64 64">
  <!-- Generator: Adobe Illustrator 30.3.0, SVG Export Plug-In . SVG Version: 2.1.3 Build 182)  -->
  <defs>
    <style>
      .st0 {
        fill: #fff;
      }
    </style>
  </defs>
  <circle class="st0" cx="32.01" cy="32.01" r="31.99"/>
  <g id="kOLRW6.tif">
    <path d="M14.26,45.39l.23-.98c.05-.21.23-.41.45-.43.05.95-.06,1.82.04,2.74.27,2.22,1.04,4.31,2.39,6.08.51.67,1.14,1.17,1.73,1.77.23.25.59.41.9.59.97.59,2.05,1.06,3.2,1.16l1.79.02c.27,0,.59-.14.84-.23l1.03-.4c.86-.34,2.23-1.62,2.71-2.46.41-.7.81-1.39,1-2.2l.2-.61.36-1.74.06-1.03v-16.44c0-.35,0-.56-.12-.95l-.51,1.29-1.17,3.21-1,2.72-1.12,3.06-1.14,3.11-.83,2.27s-.15.1-.17.07l-.12-.15-.68-2-1.4-3.89-.31-.88-.98-2.76-1.87-5.29-.23-.67-.87-2.33c-.27-.73-.55-1.42-.88-2.12-.18-.36-.41-.74-.61-1.08-.29-.51-.66-.9-1.23-1.08-.25-.08-.49-.13-.7-.35h5.46l-1.34.44c-.94.88-.08,2.83.37,4.23l.36,1.13.43,1.22.25.73.64,1.84.25.73.5,1.44.78,2.26.31.9,1.04,3.05c.04.11.11.26.2.25.1,0,.21-.17.25-.28l.47-1.32.41-1.15.62-1.7,1.21-3.33.63-1.77.34-.85.41-1.17.4-1.07.71-1.97.48-1.31c.61-1.68,1-2.49.73-4.51-.23-1.72-1.74-2.5-3.4-2.7-.37-.04-.76-.12-1.12-.15-1.12-.08-2.16-.06-3.31-.08v-.35c2.59-.03,6.87.31,7.72-2.48.09-.28.16-.6.16-.9v-2.86c-.51-.16-.85-.44-1.22-.82-.46-.46-.9-.97-1-1.69-.09-.58-.1-1.25-.02-1.88.19-1.38,1.61-2.65,2.94-2.81,1.23-.14,2.17,0,3.13.77,1.67,1.32,1.85,3.92.28,5.53-.38.38-.77.7-1.33.88l.03,2.85c0,.73.59,2.01,1.2,2.38.7.43,1.47.75,2.29.85l.98.12c1.14.15,2.24.04,3.38.05.03.09.02.3-.02.35l-3.28.11-1.06.12c-.84.11-1.64.38-2.34.84-.38.26-.64.68-.82,1.1-.53,1.18-.36,2.8.09,4.02l.75,2.02.61,1.7.76,2.14,1.04,2.83.73,2.04.61,1.7,1.15,3.16.5,1.38c.03.06.12.18.19.18.08,0,.18-.14.21-.23l.7-2.07.29-.84.15-.43.68-1.93.59-1.72.21-.67.65-1.84.27-.78.49-1.43.87-2.63.33-1.17c.12-.44.08-1,.03-1.46-.09-.72-1.05-.74-1.62-1.01h5.25s.12.06.1.08l-.14.12c-.85.15-1.5.67-1.85,1.44-.95,1.63-1.64,3.65-2.29,5.46l-.8,2.25-.32.9-2.93,8.22-.67,1.89-.33.96-.4,1.11-.12.18s-.17-.06-.19-.12l-.4-1.08-.48-1.3-.88-2.4-.51-1.44-.9-2.43-.77-2.14-.23-.59-.82-2.24-.68-1.94-.26.11v14.3l-.15,1.66c-.13,1.52-.46,2.95-.99,4.37-.66,1.77-1.67,3.21-3.1,4.43-.82.7-1.81,1.19-2.83,1.55-1.16.42-3.05.75-4.23.58-1.52-.21-2.96-.58-4.41-1.02l-1.24-.26c-.9-.19-1.87-.08-2.82-.08l-.03-4.21-.14-.98v-4.37l.17-1.05.04.06h0ZM32.72,10.94c.82,0,1.37-.29,1.9-.81.56-.55.81-1.14.81-1.94,0-.86-.27-1.53-.93-2.13-.89-.79-2.23-.98-3.3-.3-.34.21-.71.59-.95.95-.49.7-.48,1.6-.25,2.39.12.43.43.73.68,1.03.53.61,1.22.82,2.04.82h0Z"/>
  </g>
</svg>